<?xml version="1.0" encoding="UTF-8"?>
<!DOCTYPE svg PUBLIC "-//W3C//DTD SVG 1.1//EN" "http://www.w3.org/Graphics/SVG/1.1/DTD/svg11.dtd">
<svg xmlns="http://www.w3.org/2000/svg" version="1.1" width="995px" height="1024px" style="shape-rendering:geometricPrecision; text-rendering:geometricPrecision; image-rendering:optimizeQuality; fill-rule:evenodd; clip-rule:evenodd" xmlns:xlink="http://www.w3.org/1999/xlink">
<g><path style="opacity:0.992" fill="#4fc3f7" d="M 591.5,-0.5 C 623.167,-0.5 654.833,-0.5 686.5,-0.5C 718.14,3.19346 749.473,9.02679 780.5,17C 841.87,35.4107 892.37,69.5773 932,119.5C 980.131,186.483 995.131,260.483 977,341.5C 967.426,377.66 950.259,409.494 925.5,437C 912.827,448.107 899.16,457.774 884.5,466C 815.767,496.538 745.767,499.538 674.5,475C 663.561,470.53 652.895,465.53 642.5,460C 601.32,434.517 565.153,403.35 534,366.5C 510.589,335.998 487.923,304.998 466,273.5C 437.992,236.822 406.492,203.322 371.5,173C 350.236,155.454 328.57,138.454 306.5,122C 300.338,116.838 294.505,111.338 289,105.5C 282.364,90.7621 285.198,78.2621 297.5,68C 392.55,32.3997 490.55,9.56635 591.5,-0.5 Z"/></g>
<g><path style="opacity:1" fill="#b2e4fb" d="M 733.5,44.5 C 737.964,45.6437 742.63,46.3104 747.5,46.5C 790.534,53.9262 826.368,73.9262 855,106.5C 861.125,114.414 865.958,123.081 869.5,132.5C 869.41,135.152 870.076,137.485 871.5,139.5C 873.498,163.361 863.165,178.861 840.5,186C 821.754,187.639 804.754,182.973 789.5,172C 772.299,158.765 757.466,143.265 745,125.5C 735.358,116.187 724.858,108.02 713.5,101C 699.936,93.4399 685.936,86.7732 671.5,81C 666.42,77.6024 663.42,72.9358 662.5,67C 664.205,59.6192 668.538,54.2859 675.5,51C 678.071,49.5462 680.738,48.3795 683.5,47.5C 687.684,47.1491 691.684,46.4824 695.5,45.5C 708.141,44.6018 720.808,44.2685 733.5,44.5 Z"/></g>
<g><path style="opacity:1" fill="#7dd2f9" d="M 733.5,44.5 C 738.453,44.1228 743.119,44.7895 747.5,46.5C 742.63,46.3104 737.964,45.6437 733.5,44.5 Z"/></g>
<g><path style="opacity:1" fill="#89d6f9" d="M 695.5,45.5 C 691.684,46.4824 687.684,47.1491 683.5,47.5C 687.183,45.7501 691.183,45.0834 695.5,45.5 Z"/></g>
<g><path style="opacity:1" fill="#85d5f9" d="M 869.5,132.5 C 870.924,134.515 871.59,136.848 871.5,139.5C 870.076,137.485 869.41,135.152 869.5,132.5 Z"/></g>
<g><path style="opacity:0.992" fill="#4fc3f7" d="M -0.5,796.5 C -0.5,780.833 -0.5,765.167 -0.5,749.5C 2.61053,720.707 8.44386,692.374 17,664.5C 26.8874,638.841 38.554,614.174 52,590.5C 65.1667,569.5 78.3333,548.5 91.5,527.5C 105.148,502.194 116.648,475.861 126,448.5C 133.685,421.684 138.685,394.351 141,366.5C 142.665,344.531 143.665,322.531 144,300.5C 144.323,289.693 147.49,279.86 153.5,271C 161.95,263.506 171.617,261.506 182.5,265C 186.5,267.667 190.5,270.333 194.5,273C 244.85,318.989 290.35,368.822 331,422.5C 363.414,466.943 391.748,513.943 416,563.5C 429.166,594.663 440.166,626.663 449,659.5C 454.883,686.348 458.05,713.514 458.5,741C 458.873,792.683 446.373,840.849 421,885.5C 381.961,949.08 325.128,986.58 250.5,998C 204.907,1003.93 160.907,998.261 118.5,981C 76.8285,961.329 45.6618,930.829 25,889.5C 19.1357,877.199 14.1357,864.532 10,851.5C 5.40314,833.232 1.90314,814.899 -0.5,796.5 Z"/></g>
<g><path style="opacity:0.989" fill="#4fc3f7" d="M 994.5,834.5 C 994.5,847.833 994.5,861.167 994.5,874.5C 990.437,912.275 976.27,945.608 952,974.5C 932.924,993.544 910.424,1007.04 884.5,1015C 872.787,1018.19 861.12,1021.03 849.5,1023.5C 833.5,1023.5 817.5,1023.5 801.5,1023.5C 783.704,1019.63 766.704,1013.46 750.5,1005C 733.123,993.954 717.956,980.454 705,964.5C 695.419,952.349 687.086,939.349 680,925.5C 664.163,890.774 653.163,854.441 647,816.5C 644.259,782.794 637.925,749.794 628,717.5C 612.58,674.9 596.58,632.566 580,590.5C 578.55,576.058 585.05,568.391 599.5,567.5C 680.391,576.194 757.724,597.36 831.5,631C 864.256,647.032 894.256,667.032 921.5,691C 962.915,729.994 987.248,777.827 994.5,834.5 Z"/></g>
<g><path style="opacity:1" fill="#b2e4fb" d="M 410.5,679.5 C 411.186,686.347 412.186,693.014 413.5,699.5C 414.366,711.477 414.699,723.477 414.5,735.5C 412.946,739.567 412.28,743.9 412.5,748.5C 411.313,751.946 410.646,755.613 410.5,759.5C 407.53,775.272 401.197,789.439 391.5,802C 371.728,817.177 355.561,814.01 343,792.5C 340.597,788.365 338.763,784.032 337.5,779.5C 336.871,776.603 335.871,773.936 334.5,771.5C 332.29,764.873 330.29,758.206 328.5,751.5C 328.706,748.505 328.04,745.838 326.5,743.5C 320.635,715.083 319.135,686.416 322,657.5C 323.073,638.53 330.24,622.363 343.5,609C 359.79,597.478 374.29,599.312 387,614.5C 399.32,634.487 407.153,656.153 410.5,679.5 Z"/></g>
<g><path style="opacity:1" fill="#7fd3f9" d="M 410.5,679.5 C 412.93,685.814 413.93,692.48 413.5,699.5C 412.186,693.014 411.186,686.347 410.5,679.5 Z"/></g>
<g><path style="opacity:1" fill="#b2e4fb" d="M 856.5,696.5 C 863.413,696.956 869.746,699.122 875.5,703C 901.398,721.957 919.065,746.791 928.5,777.5C 928.41,780.152 929.076,782.485 930.5,784.5C 933.328,797.313 934.161,810.313 933,823.5C 931.327,833.005 925.827,838.672 916.5,840.5C 909.711,840.799 903.044,840.132 896.5,838.5C 879.999,831.487 865.833,821.154 854,807.5C 835.355,786.542 823.355,762.208 818,734.5C 815.11,722.622 817.943,712.455 826.5,704C 829.91,701.628 833.577,699.795 837.5,698.5C 843.711,696.899 850.044,696.232 856.5,696.5 Z"/></g>
<g><path style="opacity:1" fill="#94dafa" d="M 856.5,696.5 C 850.044,696.232 843.711,696.899 837.5,698.5C 843.609,695.492 849.942,694.826 856.5,696.5 Z"/></g>
<g><path style="opacity:1" fill="#7bd1f9" d="M 326.5,743.5 C 328.04,745.838 328.706,748.505 328.5,751.5C 327.232,749.095 326.565,746.428 326.5,743.5 Z"/></g>
<g><path style="opacity:1" fill="#72cef8" d="M 414.5,735.5 C 414.72,740.1 414.054,744.433 412.5,748.5C 412.28,743.9 412.946,739.567 414.5,735.5 Z"/></g>
<g><path style="opacity:1" fill="#75cff8" d="M 412.5,748.5 C 412.884,752.489 412.217,756.155 410.5,759.5C 410.646,755.613 411.313,751.946 412.5,748.5 Z"/></g>
<g><path style="opacity:1" fill="#80d3f9" d="M 334.5,771.5 C 335.871,773.936 336.871,776.603 337.5,779.5C 335.345,777.383 334.345,774.716 334.5,771.5 Z"/></g>
<g><path style="opacity:1" fill="#8ed8fa" d="M 928.5,777.5 C 929.924,779.515 930.59,781.848 930.5,784.5C 929.076,782.485 928.41,780.152 928.5,777.5 Z"/></g>
<g><path style="opacity:1" fill="#92d9fa" d="M 896.5,838.5 C 903.044,840.132 909.711,840.799 916.5,840.5C 912.019,841.648 907.352,841.815 902.5,841C 900.277,840.434 898.277,839.6 896.5,838.5 Z"/></g>
</svg>
