<?xml version="1.0" encoding="UTF-8"?>
<!DOCTYPE svg PUBLIC "-//W3C//DTD SVG 1.1//EN" "http://www.w3.org/Graphics/SVG/1.1/DTD/svg11.dtd">
<svg xmlns="http://www.w3.org/2000/svg" version="1.1" width="1024px" height="1024px" style="shape-rendering:geometricPrecision; text-rendering:geometricPrecision; image-rendering:optimizeQuality; fill-rule:evenodd; clip-rule:evenodd" xmlns:xlink="http://www.w3.org/1999/xlink">
<g><path style="opacity:0.994" fill="#b2cfdf" d="M 620.5,815.5 C 574.327,798.416 531.327,775.583 491.5,747C 479.007,738.002 466.674,728.835 454.5,719.5C 378.472,658.655 313.972,587.655 261,506.5C 245.912,481.657 232.412,455.99 220.5,429.5C 205.401,395.769 198.568,360.436 200,323.5C 205.922,271.575 234.922,244.575 287,242.5C 310.696,243.239 333.53,248.073 355.5,257C 397.013,274.745 435.68,297.078 471.5,324C 560.706,391.539 638.872,470.039 706,559.5C 731.67,593.819 753.003,630.819 770,670.5C 777.824,689.795 782.824,709.795 785,730.5C 788.765,779.022 767.599,810.522 721.5,825C 686.998,830.939 653.331,827.772 620.5,815.5 Z"/></g>
<g><path style="opacity:1" fill="#2c3640" d="M 639.5,513.5 C 606.786,543.081 582.953,578.748 568,620.5C 554.97,661.836 555.47,703.003 569.5,744C 569.43,744.765 569.097,745.265 568.5,745.5C 535.58,727.232 504.58,706.232 475.5,682.5C 489.353,658.795 502.686,634.795 515.5,610.5C 522.647,602.416 524.48,593.083 521,582.5C 507.708,548.875 484.541,524.708 451.5,510C 444.111,506.868 436.445,505.868 428.5,507C 425.138,508.343 422.138,510.176 419.5,512.5C 396.673,528.414 373.673,544.081 350.5,559.5C 313.431,514.858 282.931,465.858 259,412.5C 248.785,388.274 242.952,363.108 241.5,337C 239.438,308.426 252.104,290.426 279.5,283C 308.919,281.06 337.252,285.727 364.5,297C 411.3,316.387 454.633,341.387 494.5,372C 548.226,413.559 596.56,460.725 639.5,513.5 Z"/></g>
<g><path style="opacity:1" fill="#b2deeb" d="M 236.5,417.5 C 244.188,416.263 250.021,418.929 254,425.5C 264.305,451.777 276.971,476.777 292,500.5C 303.421,517.009 315.088,533.343 327,549.5C 338.147,562.468 348.814,575.802 359,589.5C 362.064,594.951 362.231,600.451 359.5,606C 355.634,608.12 351.967,607.786 348.5,605C 340.735,599.239 333.569,592.739 327,585.5C 288.629,544.433 257.296,498.433 233,447.5C 230.439,440.699 229.439,433.699 230,426.5C 231.222,422.686 233.389,419.686 236.5,417.5 Z"/></g>
<g><path style="opacity:0.999" fill="#8cafbf" d="M 220.5,429.5 C 232.412,455.99 245.912,481.657 261,506.5C 313.972,587.655 378.472,658.655 454.5,719.5C 455.048,730.706 458.215,741.039 464,750.5C 471.455,756.948 477.788,764.282 483,772.5C 486.903,785.119 484.07,795.953 474.5,805C 454.391,814.554 434.725,824.887 415.5,836C 405.689,843.315 396.356,851.148 387.5,859.5C 322.785,836.827 269.452,798.493 227.5,744.5C 249.782,719.351 276.115,699.518 306.5,685C 314.285,684.858 321.951,685.691 329.5,687.5C 333.486,687.796 337.153,686.962 340.5,685C 291.135,644.089 252.969,594.589 226,536.5C 222.85,557.099 217.517,577.099 210,596.5C 199.597,616.706 187.097,635.373 172.5,652.5C 166.117,639.536 160.783,626.036 156.5,612C 156.164,610.97 155.497,610.47 154.5,610.5C 189.873,576.418 210.373,534.751 216,485.5C 218.273,466.886 219.773,448.22 220.5,429.5 Z"/></g>
<g><path style="opacity:1" fill="#b1deeb" d="M 515.5,610.5 C 505.188,614.468 494.855,614.302 484.5,610C 451.949,595.118 429.449,570.951 417,537.5C 415.516,531.235 415.182,524.902 416,518.5C 417.421,516.595 418.588,514.595 419.5,512.5C 422.138,510.176 425.138,508.343 428.5,507C 436.445,505.868 444.111,506.868 451.5,510C 484.541,524.708 507.708,548.875 521,582.5C 524.48,593.083 522.647,602.416 515.5,610.5 Z"/></g>
<g><path style="opacity:1" fill="#54646d" d="M 639.5,513.5 C 675.76,556.298 705.26,603.631 728,655.5C 735.356,672.9 740.689,690.9 744,709.5C 746.527,725.657 745.86,741.657 742,757.5C 734.927,774.548 722.094,784.048 703.5,786C 677.683,787.304 652.683,783.304 628.5,774C 607.529,766.346 587.529,756.846 568.5,745.5C 569.097,745.265 569.43,744.765 569.5,744C 555.47,703.003 554.97,661.836 568,620.5C 582.953,578.748 606.786,543.081 639.5,513.5 Z"/></g>
<g><path style="opacity:1" fill="#8caebe" d="M 419.5,512.5 C 418.588,514.595 417.421,516.595 416,518.5C 415.182,524.902 415.516,531.235 417,537.5C 429.449,570.951 451.949,595.118 484.5,610C 494.855,614.302 505.188,614.468 515.5,610.5C 502.686,634.795 489.353,658.795 475.5,682.5C 429.592,645.927 387.926,604.927 350.5,559.5C 373.673,544.081 396.673,528.414 419.5,512.5 Z"/></g>
<g><path style="opacity:1" fill="#b1deeb" d="M 227.5,744.5 C 205.13,716.458 186.797,685.791 172.5,652.5C 187.097,635.373 199.597,616.706 210,596.5C 217.517,577.099 222.85,557.099 226,536.5C 252.969,594.589 291.135,644.089 340.5,685C 337.153,686.962 333.486,687.796 329.5,687.5C 321.951,685.691 314.285,684.858 306.5,685C 276.115,699.518 249.782,719.351 227.5,744.5 Z"/></g>
<g><path style="opacity:1" fill="#427687" d="M 154.5,610.5 C 155.497,610.47 156.164,610.97 156.5,612C 160.783,626.036 166.117,639.536 172.5,652.5C 186.797,685.791 205.13,716.458 227.5,744.5C 269.452,798.493 322.785,836.827 387.5,859.5C 387.5,859.833 387.5,860.167 387.5,860.5C 361.507,886.66 335.673,912.993 310,939.5C 300.147,951.686 289.313,962.852 277.5,973C 254.704,984.013 230.704,987.68 205.5,984C 200.809,983.396 196.142,983.063 191.5,983C 192.056,983.383 192.389,983.883 192.5,984.5C 127.571,953.405 79.4046,905.405 48,840.5C 39.2891,821.367 33.6225,801.367 31,780.5C 28.1102,759.718 31.4435,740.052 41,721.5C 44.1311,717.367 47.6311,713.534 51.5,710C 72.5479,691.13 93.2146,671.797 113.5,652C 127.396,638.272 141.062,624.438 154.5,610.5 Z"/></g>
<g><path style="opacity:1" fill="#8baebe" d="M 158.5,666.5 C 170.337,698.826 186.67,728.659 207.5,756C 172.038,791.795 136.205,827.295 100,862.5C 76.5201,835.2 63.8534,803.533 62,767.5C 95.1,734.57 127.267,700.904 158.5,666.5 Z"/></g>
<g><path style="opacity:0.994" fill="#738a97" d="M 454.5,719.5 C 466.674,728.835 479.007,738.002 491.5,747C 531.327,775.583 574.327,798.416 620.5,815.5C 611.232,817.086 601.898,818.252 592.5,819C 568.178,820.046 543.845,820.712 519.5,821C 488.227,823.811 460.561,835.145 436.5,855C 430.628,860.376 424.628,865.543 418.5,870.5C 408.182,867.172 397.849,863.839 387.5,860.5C 387.5,860.167 387.5,859.833 387.5,859.5C 396.356,851.148 405.689,843.315 415.5,836C 434.725,824.887 454.391,814.554 474.5,805C 484.07,795.953 486.903,785.119 483,772.5C 477.788,764.282 471.455,756.948 464,750.5C 458.215,741.039 455.048,730.706 454.5,719.5 Z"/></g>
<g><path style="opacity:1" fill="#2c4f58" d="M 387.5,860.5 C 397.849,863.839 408.182,867.172 418.5,870.5C 383.062,904.77 347.729,939.27 312.5,974C 306.46,979.709 300.126,985.043 293.5,990C 281.086,996.209 267.92,999.376 254,999.5C 232.342,998.74 211.842,993.74 192.5,984.5C 192.389,983.883 192.056,983.383 191.5,983C 196.142,983.063 200.809,983.396 205.5,984C 230.704,987.68 254.704,984.013 277.5,973C 289.313,962.852 300.147,951.686 310,939.5C 335.673,912.993 361.507,886.66 387.5,860.5 Z"/></g>
</svg>
